<svg width="625" height="542" viewBox="0 0 625 542" fill="none" xmlns="http://www.w3.org/2000/svg">
<path d="M63.879 333.411C63.879 333.411 249.409 244.943 287.216 232.47C325.024 219.997 572.084 340.213 572.084 340.213C572.084 340.213 596.896 335.674 618.172 289.177C639.448 242.68 606.355 155.342 529.547 126.989C471.807 105.666 468.092 35.1259 381.839 10.1662C295.587 -14.7936 219.942 15.8942 193.952 43.1022C167.961 70.3102 151.34 99.7664 96.9715 126.989C42.603 154.211 0.0661316 186.932 0.0661316 236.952C0.0661316 299.387 63.879 333.411 63.879 333.411Z" fill="#CBFC01"/>
<path opacity="0.7" d="M63.879 333.411C63.879 333.411 249.409 244.943 287.216 232.47C325.024 219.997 572.084 340.213 572.084 340.213C572.084 340.213 596.896 335.674 618.172 289.177C639.448 242.68 606.355 155.342 529.547 126.989C471.807 105.666 468.092 35.1259 381.839 10.1662C295.587 -14.7936 219.942 15.8942 193.952 43.1022C167.961 70.3102 151.34 99.7664 96.9715 126.989C42.603 154.211 0.0661316 186.932 0.0661316 236.952C0.0661316 299.387 63.879 333.411 63.879 333.411Z" fill="white"/>
<path d="M436.506 125.528L428.419 133.705C426.165 135.986 424.491 138.738 423.531 141.744C422.57 144.751 422.349 147.93 422.884 151.032C423.913 157.204 425.629 164.235 428.285 166.34C431.418 168.86 440.803 169.204 447.368 169.047C451.654 168.98 455.818 167.661 459.304 165.266L472.075 156.517C475.453 154.201 478.046 150.982 479.531 147.262C481.017 143.542 481.33 139.484 480.43 135.595L479.147 130.039C478.414 126.876 476.906 123.927 474.747 121.437C472.588 118.946 469.841 116.986 466.734 115.719C463.209 114.28 459.343 113.786 455.549 114.29C451.754 114.795 448.174 116.278 445.189 118.583L438.58 123.724C437.849 124.282 437.157 124.885 436.506 125.528Z" fill="#6A008B"/>
<path d="M154.816 222.933L164.604 229.176C167.32 230.908 170.417 232.014 173.651 232.409C176.886 232.804 180.172 232.477 183.254 231.453C189.416 229.42 196.339 226.584 198.055 223.72C200.099 220.312 198.801 211.391 197.547 205.205C196.717 201.175 194.636 197.482 191.579 194.608L180.389 184.04C177.432 181.245 173.684 179.348 169.612 178.584C165.539 177.82 161.322 178.223 157.487 179.744L152.011 181.92C148.893 183.149 146.127 185.077 143.947 187.544C141.766 190.011 140.234 192.944 139.479 196.097C138.613 199.682 138.778 203.425 139.958 206.926C141.138 210.427 143.288 213.555 146.178 215.973L152.578 221.343C153.291 221.915 154.038 222.446 154.816 222.933Z" fill="#6A008B"/>
<path d="M232.594 140.12C232.594 140.12 222.866 140.12 222.866 145.032C222.866 149.944 223.374 153.882 226.447 154.369C227.349 154.471 228.261 154.471 229.163 154.369C231.69 154.166 234.053 153.088 235.813 151.336C237.573 149.584 238.608 147.277 238.726 144.846C238.733 144.741 238.733 144.636 238.726 144.531C238.741 142.569 236.175 139.132 232.594 140.12Z" fill="#6A008B"/>
<path d="M434.268 208.054C434.268 208.054 418.393 208.054 418.393 216.073C418.393 224.093 419.229 230.508 424.242 231.31C425.728 231.48 427.231 231.48 428.718 231.31C432.838 230.978 436.691 229.22 439.562 226.365C442.433 223.51 444.125 219.75 444.324 215.787C444.324 215.601 444.324 215.415 444.324 215.257C444.309 212.064 440.117 206.45 434.268 208.054Z" fill="#6A008B"/>
<path d="M396.401 44.2334C396.401 44.2334 400.504 58.9544 408.576 56.8923C416.647 54.8302 422.899 52.3815 422.407 47.527C422.193 46.12 421.813 44.7411 421.273 43.4172C419.881 39.6793 417.119 36.5554 413.503 34.629C409.887 32.7026 405.664 32.1055 401.623 32.9493L401.086 33.0782C397.848 33.9087 393.283 39.2214 396.401 44.2334Z" fill="#6A008B"/>
<path d="M167.633 93.8809C167.633 93.8809 171.736 108.602 179.807 106.525C187.879 104.449 194.116 102.029 193.638 97.1745C193.418 95.7641 193.038 94.3811 192.504 93.0503C191.104 89.3157 188.338 86.1966 184.721 84.2736C181.103 82.3506 176.881 81.7546 172.84 82.5967L172.303 82.7113C169.08 83.5418 164.499 88.8689 167.633 93.8809Z" fill="#6A008B"/>
<path d="M100.612 143.328C100.612 143.328 90.8842 143.328 90.8842 148.24C90.8842 153.151 91.3914 157.089 94.4649 157.576C95.367 157.678 96.2784 157.678 97.1804 157.576C99.7073 157.374 102.071 156.296 103.831 154.544C105.591 152.791 106.626 150.485 106.744 148.053C106.751 147.949 106.751 147.843 106.744 147.738C106.714 145.777 104.148 142.34 100.612 143.328Z" fill="#6A008B"/>
<path d="M264.344 46.2812C264.344 46.2812 254.616 46.2812 254.616 51.193C254.616 56.1047 255.124 60.0427 258.197 60.5296C259.104 60.6319 260.02 60.6319 260.927 60.5296C263.452 60.3275 265.814 59.2516 267.573 57.5024C269.333 55.7531 270.37 53.4497 270.491 51.0211V50.6918C270.491 48.7299 267.925 45.2931 264.344 46.2812Z" fill="#6A008B"/>
<path d="M473.254 249.196C473.254 249.196 463.526 249.196 463.526 254.107C463.526 259.019 464.033 262.957 467.107 263.444C468.009 263.552 468.921 263.552 469.822 263.444C472.347 263.242 474.709 262.166 476.468 260.417C478.227 258.667 479.265 256.364 479.386 253.936C479.393 253.826 479.393 253.716 479.386 253.606C479.401 251.644 476.835 248.208 473.254 249.196Z" fill="#6A008B"/>
<path d="M571.293 262.026C571.293 262.026 573.621 271.091 578.604 269.917C583.587 268.742 587.422 267.31 587.183 264.332C587.069 263.467 586.854 262.616 586.541 261.797C585.731 259.489 584.072 257.543 581.876 256.322C579.679 255.102 577.095 254.691 574.605 255.167L574.277 255.239C572.308 255.711 569.443 258.919 571.293 262.026Z" fill="#6A008B"/>
<path d="M45.0052 261.869C45.0052 261.869 46.0794 266.05 48.3771 265.506C50.6747 264.962 52.4502 264.303 52.3309 262.928C52.2784 262.527 52.1783 262.133 52.0325 261.754C51.657 260.694 50.8936 259.801 49.8839 259.24C48.8742 258.679 47.6867 258.489 46.5419 258.704H46.3927C46.0693 258.804 45.7721 258.97 45.5216 259.19C45.2711 259.41 45.0732 259.68 44.9414 259.981C44.8096 260.281 44.7471 260.605 44.7581 260.931C44.7691 261.257 44.8534 261.577 45.0052 261.869Z" fill="#6A008B"/>
<path d="M402.608 248.107C402.608 248.107 403.682 252.289 405.98 251.745C408.277 251.2 410.038 250.556 409.933 249.181C409.883 248.78 409.783 248.386 409.635 248.007C409.262 246.945 408.499 246.05 407.489 245.488C406.478 244.927 405.29 244.738 404.144 244.957H403.995C403.672 245.055 403.375 245.219 403.125 245.438C402.874 245.657 402.676 245.925 402.544 246.225C402.413 246.524 402.35 246.848 402.361 247.173C402.372 247.498 402.456 247.817 402.608 248.107Z" fill="#6A008B"/>
<path d="M563.132 215.472C563.132 215.472 564.206 219.653 566.504 219.109C568.802 218.565 570.562 217.906 570.458 216.532C570.407 216.135 570.307 215.746 570.159 215.372C569.787 214.309 569.025 213.412 568.015 212.849C567.005 212.285 565.816 212.092 564.669 212.307H564.52C564.196 212.407 563.899 212.573 563.649 212.793C563.398 213.013 563.2 213.283 563.068 213.584C562.937 213.884 562.874 214.209 562.885 214.535C562.896 214.86 562.98 215.18 563.132 215.472Z" fill="#6A008B"/>
<path d="M449.874 99.165C449.874 99.165 454.35 107.485 458.826 105.237C463.302 102.988 466.794 100.769 465.854 97.9191C465.531 97.1 465.116 96.3173 464.615 95.585C463.275 93.5199 461.197 91.9933 458.771 91.2898C456.344 90.5863 453.733 90.754 451.426 91.7615L451.128 91.9047C449.352 92.7926 447.323 96.616 449.874 99.165Z" fill="#6A008B"/>
<path d="M361.339 23.7415C361.339 23.7415 365.815 32.0614 370.291 29.8132C374.767 27.565 378.273 25.3454 377.318 22.4957C377.007 21.6787 376.597 20.9 376.095 20.1758C374.757 18.1083 372.68 16.5787 370.253 15.8725C367.827 15.1663 365.215 15.3318 362.906 16.3381L362.607 16.4813C360.817 17.3834 358.803 21.1353 361.339 23.7415Z" fill="#6A008B"/>
<path d="M201.203 45.7084C201.203 45.7084 205.679 54.014 210.155 51.7801C214.631 49.5462 218.122 47.3123 217.182 44.4626C216.865 43.6408 216.45 42.8574 215.944 42.1284C214.606 40.0643 212.532 38.5371 210.109 37.8311C207.685 37.1251 205.077 37.2884 202.769 38.2907L202.456 38.4339C200.68 39.336 198.651 43.0879 201.203 45.7084Z" fill="#6A008B"/>
<path d="M304.345 68.2194C304.345 68.2194 307.985 67.7469 307.731 65.9139C307.478 64.081 307.075 62.6346 305.911 62.5917C305.564 62.6001 305.219 62.6433 304.882 62.7206C303.95 62.9184 303.126 63.4339 302.56 64.1713C301.995 64.9087 301.728 65.8179 301.808 66.7302C301.808 66.7302 301.808 66.8161 301.808 66.859C301.865 67.1178 301.978 67.362 302.141 67.5751C302.304 67.7881 302.513 67.9651 302.753 68.0941C302.994 68.223 303.26 68.301 303.535 68.3226C303.809 68.3442 304.085 68.309 304.345 68.2194Z" fill="#6A008B"/>
<path d="M405.353 145.204C405.353 145.204 397.117 132.187 389.97 136.34C382.824 140.492 377.557 144.516 379.437 149.042C380.047 150.34 380.813 151.566 381.72 152.693C384.15 155.903 387.714 158.155 391.746 159.029C395.779 159.904 400.005 159.342 403.637 157.447L404.13 157.19C406.979 155.514 409.814 149.185 405.353 145.204Z" fill="#6A008B"/>
<path d="M93.0326 231.224C93.0326 231.224 84.7968 218.193 77.6501 222.36C70.5034 226.527 65.2218 230.522 67.1166 235.062C67.7273 236.36 68.4934 237.585 69.3993 238.713C71.83 241.923 75.3935 244.175 79.4258 245.05C83.4582 245.924 87.6844 245.362 91.3168 243.468L91.8092 243.196C94.644 241.563 97.4937 235.219 93.0326 231.224Z" fill="#6A008B"/>
<path d="M188.297 140.621C188.297 140.621 180.061 127.604 172.914 131.757C165.768 135.91 160.486 139.934 162.381 144.459C162.988 145.759 163.755 146.985 164.664 148.111C167.094 151.32 170.658 153.572 174.69 154.447C178.722 155.322 182.949 154.759 186.581 152.865L187.058 152.593C189.923 150.932 192.758 144.588 188.297 140.621Z" fill="#6A008B"/>
<path d="M523.37 155.858C523.37 155.858 515.149 142.841 508.003 146.994C500.856 151.147 495.574 155.17 497.454 159.696C498.07 160.994 498.841 162.22 499.752 163.347C502.182 166.557 505.746 168.809 509.778 169.683C513.811 170.558 518.037 169.996 521.669 168.101L522.147 167.844C525.011 166.168 527.846 159.839 523.37 155.858Z" fill="#6A008B"/>
<path d="M372.812 36.9016C372.812 36.9016 357.072 38.8778 358.146 46.8254C359.22 54.773 360.921 61.0451 366.009 61.1454C367.493 61.1299 368.97 60.9473 370.41 60.6012C374.46 59.7722 378.057 57.5562 380.528 54.3674C382.999 51.1785 384.176 47.235 383.838 43.274C383.838 43.0878 383.838 42.9017 383.838 42.7441C383.301 39.6367 378.393 34.5961 372.812 36.9016Z" fill="#6A008B"/>
<path d="M603.595 220.828C603.595 220.828 595.359 207.796 588.213 211.964C581.066 216.131 575.784 220.126 577.679 224.665C578.287 225.96 579.053 227.181 579.962 228.303C582.392 231.525 585.963 233.787 590.005 234.665C594.048 235.543 598.285 234.976 601.924 233.071L602.416 232.799C605.221 231.138 608.056 224.794 603.595 220.828Z" fill="#6A008B"/>
<path d="M483.564 278.48L537.276 310.943" stroke="white" stroke-linecap="round" stroke-linejoin="round"/>
<path d="M459.975 243.124L537.291 274.871" stroke="white" stroke-linecap="round" stroke-linejoin="round"/>
<path d="M378.452 209.644L441.415 235.506" stroke="white" stroke-linecap="round" stroke-linejoin="round"/>
<path d="M138.912 221.057L57.3142 252.532" stroke="white" stroke-linecap="round" stroke-linejoin="round"/>
<path d="M311.357 15.6221L312.193 77.5704" stroke="white" stroke-linecap="round" stroke-linejoin="round"/>
<path d="M368.471 31.0304L337.676 79.2029" stroke="white" stroke-linecap="round" stroke-linejoin="round"/>
<path d="M372.514 64.5248L341.928 93.8808" stroke="white" stroke-linecap="round" stroke-linejoin="round"/>
<path d="M413.857 103.733L355.52 142.798" stroke="white" stroke-linecap="round" stroke-linejoin="round"/>
<path d="M428.569 93.8809L421.422 98.6781" stroke="white" stroke-linecap="round" stroke-linejoin="round"/>
<path d="M423.197 176.894L387.419 171.166" stroke="white" stroke-linecap="round" stroke-linejoin="round"/>
<path d="M478.043 185.672L433.432 178.526" stroke="white" stroke-linecap="round" stroke-linejoin="round"/>
<path d="M504.661 189.939L494.575 188.321" stroke="white" stroke-linecap="round" stroke-linejoin="round"/>
<path d="M365.905 179.529L407.681 193.233" stroke="white" stroke-linecap="round" stroke-linejoin="round"/>
<path d="M236.339 183.853L224.717 187.634" stroke="white" stroke-linecap="round" stroke-linejoin="round"/>
<path d="M274.818 171.323L245.813 180.775" stroke="white" stroke-linecap="round" stroke-linejoin="round"/>
<path d="M161.456 174.102L149.967 175.405" stroke="white" stroke-linecap="round" stroke-linejoin="round"/>
<path d="M264.628 162.359L172.034 172.899" stroke="white" stroke-linecap="round" stroke-linejoin="round"/>
<path d="M195.772 104.678L251.035 128.12" stroke="white" stroke-linecap="round" stroke-linejoin="round"/>
<path d="M177.987 97.1458L185.268 100.225" stroke="white" stroke-linecap="round" stroke-linejoin="round"/>
<path d="M219.614 128.12L262.076 140.349" stroke="white" stroke-linecap="round" stroke-linejoin="round"/>
<path d="M216.212 49.8612L241.696 80.8354" stroke="white" stroke-linecap="round" stroke-linejoin="round"/>
<path d="M247.649 88.1672L256.989 97.9621" stroke="white" stroke-linecap="round" stroke-linejoin="round"/>
<path d="M156.055 269.645L147.416 274.871" stroke="white" stroke-linecap="round" stroke-linejoin="round"/>
<path d="M225.552 227.587L165.514 263.917" stroke="white" stroke-linecap="round" stroke-linejoin="round"/>
<path d="M238.294 204.761L215.362 216.174" stroke="white" stroke-linecap="round" stroke-linejoin="round"/>
<path d="M150.803 133.017L110.892 127.304" stroke="white" stroke-linecap="round" stroke-linejoin="round"/>
<path d="M476.865 215.472L526.593 229.792" stroke="white" stroke-linecap="round" stroke-linejoin="round"/>
<path d="M472.612 130.511L506.436 120.001" stroke="white" stroke-linecap="round" stroke-linejoin="round"/>
<path d="M387.598 110.22H227.536C226.595 110.22 225.688 109.877 225 109.261L162.112 53.1548C161.388 52.5072 160.962 51.6101 160.927 50.6608C160.892 49.7114 161.251 48.7877 161.926 48.0926C162.6 47.3976 163.535 46.9883 164.524 46.9548C165.513 46.9212 166.476 47.2661 167.2 47.9136L228.999 103.06H386.136L447.95 47.928C448.681 47.3286 449.626 47.0238 450.587 47.0772C451.547 47.1306 452.449 47.5382 453.104 48.2146C453.758 48.8911 454.116 49.7843 454.1 50.7075C454.085 51.6308 453.699 52.5127 453.022 53.1691L390.15 109.275C389.453 109.886 388.542 110.223 387.598 110.22Z" fill="white" stroke="#263238" stroke-linecap="round" stroke-linejoin="round"/>
<path d="M125.096 261.94L113.309 213.338C112.487 209.803 110.747 206.525 108.25 203.808C105.754 201.092 102.582 199.025 99.0305 197.801L16.0156 169.848C15.5468 169.693 15.0502 169.63 14.5554 169.664C14.0607 169.697 13.5781 169.826 13.1365 170.042C12.6949 170.259 12.3033 170.559 11.9854 170.924C11.6674 171.29 11.4295 171.713 11.286 172.168C10.981 173.082 11.0542 174.074 11.4902 174.938C11.9263 175.802 12.6919 176.471 13.6284 176.808L96.6433 204.775C98.9852 205.58 101.077 206.942 102.723 208.732C104.369 210.522 105.516 212.683 106.058 215.014L117.845 263.616C118.618 266.828 118.266 270.195 116.845 273.196L95.3452 317.889L105.789 313.249L123.514 276.404C125.686 271.881 126.242 266.797 125.096 261.94Z" fill="white" stroke="#263238" stroke-linecap="round" stroke-linejoin="round"/>
<path d="M611.637 172.168C611.492 171.714 611.253 171.292 610.934 170.928C610.616 170.564 610.225 170.264 609.783 170.048C609.342 169.832 608.861 169.703 608.366 169.668C607.872 169.634 607.376 169.695 606.907 169.848L523.892 197.801C520.341 199.025 517.169 201.092 514.673 203.808C512.176 206.525 510.436 209.803 509.614 213.338L497.812 261.94C496.624 266.806 497.149 271.912 499.304 276.461L518.103 315.526L528.219 320.008C528.189 319.537 528.067 319.076 527.861 318.648L506.033 273.253C504.599 270.256 504.242 266.886 505.019 263.673L516.88 215.071C517.422 212.741 518.569 210.58 520.215 208.789C521.861 206.999 523.953 205.638 526.295 204.832L609.295 176.808C610.231 176.471 610.997 175.802 611.433 174.938C611.869 174.074 611.942 173.082 611.637 172.168Z" fill="white" stroke="#263238" stroke-linecap="round" stroke-linejoin="round"/>
<path d="M390.836 324.748H224.299L249.29 260.594H365.86L390.836 324.748Z" fill="white" stroke="#263238" stroke-linecap="round" stroke-linejoin="round"/>
<path d="M374.14 318.318H240.994L260.972 267.024H354.177L374.14 318.318Z" fill="#263238" stroke="#263238" stroke-linecap="round" stroke-linejoin="round"/>
<path d="M365.86 260.594L407.695 299.344V340.085L390.836 324.748L365.86 260.594Z" fill="#263238" stroke="#263238" stroke-linecap="round" stroke-linejoin="round"/>
<path d="M249.26 260.594L207.424 299.344V340.085L224.284 324.748L249.26 260.594Z" fill="#263238" stroke="#263238" stroke-linecap="round" stroke-linejoin="round"/>
<path d="M207.424 299.344L134.391 312.375V353.417L207.424 340.085V299.344Z" fill="white" stroke="#263238" stroke-linecap="round" stroke-linejoin="round"/>
<path d="M407.74 299.344L480.774 312.375V353.417L407.74 340.085V299.344Z" fill="white" stroke="#263238" stroke-linecap="round" stroke-linejoin="round"/>
<path d="M222.24 263.63C222.24 263.63 121.664 303.841 33.666 348.118" stroke="#263238" stroke-linecap="round" stroke-linejoin="round"/>
<path d="M397.789 263.63C397.789 263.63 498.364 303.841 586.362 348.118" stroke="#263238" stroke-linecap="round" stroke-linejoin="round"/>
<path d="M145.133 328.328C149.196 328.328 152.489 325.167 152.489 321.268C152.489 317.369 149.196 314.208 145.133 314.208C141.071 314.208 137.778 317.369 137.778 321.268C137.778 325.167 141.071 328.328 145.133 328.328Z" fill="#FE4C39"/>
<path d="M170.557 324.691C174.619 324.691 177.913 321.53 177.913 317.631C177.913 313.732 174.619 310.571 170.557 310.571C166.495 310.571 163.201 313.732 163.201 317.631C163.201 321.53 166.495 324.691 170.557 324.691Z" fill="#FE4C39"/>
<path d="M142.836 346.844L139.494 347.445V340.357L142.836 339.755V346.844Z" fill="#FE4C39"/>
<path d="M147.371 346.013L144.029 346.629V334.514L147.371 333.913V346.013Z" fill="#FE4C39"/>
<path d="M151.892 345.197L148.55 345.798V341.259L151.892 340.657V345.197Z" fill="#FE4C39"/>
<path d="M156.428 344.366L153.086 344.982V335.33L156.428 334.729V344.366Z" fill="#FE4C39"/>
<path d="M160.948 343.55L157.621 344.152V337.063L160.948 336.462V343.55Z" fill="#FE4C39"/>
<path d="M165.484 342.72L162.142 343.335V340.342L165.484 339.741V342.72Z" fill="#FE4C39"/>
<path d="M170.005 341.903L166.678 342.505V338.538L170.005 337.937V341.903Z" fill="#FE4C39"/>
<path d="M174.526 341.073L171.199 341.688V334.586L174.526 333.984V341.073Z" fill="#FE4C39"/>
<path d="M179.061 340.256L175.719 340.858V328.757L179.061 328.142V340.256Z" fill="#FE4C39"/>
<path d="M183.582 339.426L180.255 340.042V335.488L183.582 334.886V339.426Z" fill="#FE4C39"/>
<path d="M188.118 338.61L184.776 339.211V329.574L188.118 328.972V338.61Z" fill="#FE4C39"/>
<path d="M192.653 337.779L189.311 338.395V331.292L192.653 330.691V337.779Z" fill="#FE4C39"/>
<path d="M197.174 336.963L193.832 337.564V334.586L197.174 333.984V336.963Z" fill="#FE4C39"/>
<path d="M201.695 336.132L198.368 336.748V332.781L201.695 332.166V336.132Z" fill="#FE4C39"/>
<path d="M461.378 321.268C461.378 322.664 461.809 324.029 462.617 325.19C463.425 326.351 464.574 327.256 465.918 327.79C467.262 328.325 468.741 328.465 470.168 328.192C471.595 327.92 472.906 327.247 473.934 326.26C474.963 325.273 475.664 324.015 475.947 322.645C476.231 321.276 476.086 319.856 475.529 318.566C474.972 317.276 474.029 316.174 472.82 315.398C471.61 314.622 470.188 314.208 468.733 314.208C466.782 314.208 464.911 314.952 463.532 316.276C462.153 317.6 461.378 319.396 461.378 321.268Z" fill="#FE4C39"/>
<path d="M443.309 324.691C447.372 324.691 450.665 321.53 450.665 317.631C450.665 313.732 447.372 310.571 443.309 310.571C439.247 310.571 435.954 313.732 435.954 317.631C435.954 321.53 439.247 324.691 443.309 324.691Z" fill="#FE4C39"/>
<path d="M471.016 346.844L474.358 347.445V340.357L471.016 339.755V346.844Z" fill="#FE4C39"/>
<path d="M466.495 346.013L469.837 346.629V334.514L466.495 333.913V346.013Z" fill="#FE4C39"/>
<path d="M461.96 345.197L465.302 345.798V341.259L461.96 340.657V345.197Z" fill="#FE4C39"/>
<path d="M457.439 344.366L460.766 344.982V335.33L457.439 334.729V344.366Z" fill="#FE4C39"/>
<path d="M452.903 343.55L456.245 344.152V337.063L452.903 336.462V343.55Z" fill="#FE4C39"/>
<path d="M448.382 342.72L451.709 343.335V340.342L448.382 339.741V342.72Z" fill="#FE4C39"/>
<path d="M443.847 341.903L447.189 342.505V338.538L443.847 337.937V341.903Z" fill="#FE4C39"/>
<path d="M439.326 341.073L442.668 341.688V334.586L439.326 333.984V341.073Z" fill="#FE4C39"/>
<path d="M434.805 340.256L438.132 340.858V328.757L434.805 328.142V340.256Z" fill="#FE4C39"/>
<path d="M430.269 339.426L433.612 340.042V335.488L430.269 334.886V339.426Z" fill="#FE4C39"/>
<path d="M425.749 338.61L429.076 339.211V329.574L425.749 328.972V338.61Z" fill="#FE4C39"/>
<path d="M421.213 337.779L424.555 338.395V331.292L421.213 330.691V337.779Z" fill="#FE4C39"/>
<path d="M416.692 336.963L420.019 337.564V334.586L416.692 333.984V336.963Z" fill="#FE4C39"/>
<path d="M412.157 336.132L415.499 336.748V332.781L412.157 332.166V336.132Z" fill="#FE4C39"/>
<path d="M480.774 353.417L499.707 433.136" stroke="#263238" stroke-linecap="round" stroke-linejoin="round"/>
<path d="M134.137 353.417L115.204 433.136" stroke="#263238" stroke-linecap="round" stroke-linejoin="round"/>
<path d="M292.334 541.968C334.672 541.968 368.993 525.619 368.993 505.452C368.993 485.285 334.672 468.936 292.334 468.936C249.996 468.936 215.675 485.285 215.675 505.452C215.675 525.619 249.996 541.968 292.334 541.968Z" fill="#CBFC01"/>
<path opacity="0.5" d="M292.334 541.968C334.672 541.968 368.993 525.619 368.993 505.452C368.993 485.285 334.672 468.936 292.334 468.936C249.996 468.936 215.675 485.285 215.675 505.452C215.675 525.619 249.996 541.968 292.334 541.968Z" fill="white"/>
<path d="M260.256 486.478C260.256 486.478 252.796 494.383 249.439 498.335C246.082 502.287 238.891 505.996 243.008 510.435C247.126 514.875 255.616 512.913 261.017 508.459C266.418 504.006 268.477 499.08 269.969 498.836C271.461 498.593 275.116 498.836 275.639 494.884C276.161 490.932 276.399 487.466 276.399 487.466C276.399 487.466 267.209 490.416 260.256 486.478Z" fill="#FE4C39" stroke="#263238" stroke-linecap="round" stroke-linejoin="round"/>
<path d="M321.264 493.395C321.264 493.395 317.907 505.008 314.818 510.435C311.73 515.863 311.476 521.061 317.4 521.061C323.323 521.061 329.753 517.61 333.618 508.96C335.89 503.294 336.408 497.118 335.11 491.175C335.11 491.175 332.588 497.103 321.264 493.395Z" fill="#FE4C39" stroke="#263238" stroke-linecap="round" stroke-linejoin="round"/>
<path d="M269.208 290.896C269.208 290.896 279.652 298.056 299.048 298.056C318.444 298.056 343.316 295.192 343.316 295.192C343.316 295.192 346.3 321.913 343.316 347.216C340.332 372.519 338.84 399.241 341.824 409.752C344.808 420.262 339.332 450.32 339.332 461.776C339.332 473.232 338.332 486.12 337.84 489.943C337.348 493.767 329.38 495.671 324.904 494.712L320.428 493.753C320.428 493.753 318.936 446.497 315.46 431.232C311.984 415.966 308.492 373.465 306.016 364.4C303.539 355.335 300.048 341.488 300.048 341.488L294.08 338.624C294.08 338.624 288.112 380.152 288.112 394.472C288.112 408.792 290.588 431.231 287.112 446.024C283.636 460.817 278.652 486.12 278.652 486.12C278.652 486.12 272.684 488.025 268.716 487.079C265.633 486.221 262.637 485.1 259.764 483.729C259.764 483.729 263.732 452.225 264.24 439.337C264.747 426.449 260.748 369.169 261.256 348.648C261.763 328.127 269.208 290.896 269.208 290.896Z" fill="#6A008B" stroke="#6A008B" stroke-linecap="round" stroke-linejoin="round"/>
<path d="M304.837 179.314C304.837 179.314 298.302 180.746 294.766 185.4C291.23 190.054 286.187 199.534 285.62 205.806C285.053 212.078 283.576 240.532 281.338 251.086C279.1 261.64 273.132 299.244 273.132 299.244C273.132 299.244 288.231 304.786 302.405 304.786C316.579 304.786 318.265 303.54 318.265 303.54C318.265 303.54 313.595 244.112 314.908 227.816C316.221 211.52 321.622 190.054 319.757 185.214C317.892 180.374 309.865 177.696 304.837 179.314Z" fill="white" stroke="#263238" stroke-linecap="round" stroke-linejoin="round"/>
<path d="M298.123 186.288C295.261 191.648 293.01 197.29 291.409 203.114C288.425 213.496 287.306 240.346 283.949 260.222C280.592 280.098 269.954 333.426 269.954 333.426L256.899 322.686C256.899 322.686 264.926 275.258 266.97 257C269.014 238.742 269.775 231.224 269.775 231.224C269.775 231.224 262.688 245.544 258.764 253.42C254.84 261.296 246.276 272.566 241.233 275.43C236.19 278.294 233.221 272.036 234.713 263.802C236.205 255.568 255.407 219.41 258.764 211.348C262.121 203.286 266.388 192.732 268.656 191.128C273.967 187.161 290.29 185.042 292.155 184.326C294.02 183.61 300.734 178.412 298.123 186.288Z" fill="#FE4C39" stroke="#263238" stroke-linecap="round" stroke-linejoin="round"/>
<path d="M269.283 211.935L269.775 231.224L264.971 221.701" stroke="#263238" stroke-linecap="round" stroke-linejoin="round"/>
<path d="M240.144 250.298C240.144 250.298 247.529 251.315 249.916 257.458C250.905 259.751 251.229 262.257 250.856 264.712C250.484 267.167 249.427 269.48 247.798 271.406C245.157 274.943 243.844 279.253 235.399 278.752C226.955 278.251 227.73 271.148 228.79 266.337C229.849 261.525 231.162 254.136 240.144 250.298Z" fill="white" stroke="#263238" stroke-linecap="round" stroke-linejoin="round"/>
<path d="M316.773 185.758C316.773 185.758 310.805 206.694 309.492 221.73C308.179 236.766 307.254 260.752 307.627 277.22C308 293.688 309.865 336.476 309.865 336.476C309.865 336.476 325.352 331.822 336.542 327.168C344.142 323.821 351.332 319.676 357.982 314.81C357.982 314.81 351.641 279.912 349.403 265.764C347.165 251.616 345.494 235.878 345.494 235.878C345.494 235.878 349.03 212.608 349.97 204.016C350.91 195.424 351.641 190.77 349.03 189.868C346.419 188.966 329.455 184.856 325.352 183.424C321.249 181.992 317.146 180.202 317.146 180.202C317.165 182.06 317.04 183.917 316.773 185.758Z" fill="#FE4C39" stroke="#263238" stroke-linecap="round" stroke-linejoin="round"/>
<path d="M299.615 176.808C298.332 177.01 297.107 177.463 296.016 178.141C294.925 178.819 293.991 179.706 293.274 180.746C290.29 184.498 285.068 193.634 283.382 196.14C281.696 198.646 281.338 199.362 281.338 199.362L292.155 198.646C292.155 198.646 295.885 189.152 299.988 185.4C304.091 181.648 310.238 182.35 312.297 184.498C313.185 184.758 313.966 185.277 314.532 185.983C315.099 186.689 315.423 187.546 315.46 188.436C315.241 191.681 314.807 194.909 314.162 198.102L325.904 199.892C325.758 194.498 324.88 189.145 323.293 183.968C320.876 177.166 310.238 174.116 299.615 176.808Z" fill="white" stroke="#263238" stroke-linecap="round" stroke-linejoin="round"/>
<path d="M297.75 171.61C297.75 171.61 298.302 182.178 297.004 188.078C295.706 193.978 301.853 198.818 306.702 196.856C311.551 194.894 316.4 190.77 316.773 185.758C317.146 180.746 318.638 162.846 318.638 162.846C318.638 162.846 307.075 169.648 303.151 170.536C301.187 171.153 299.052 171.025 297.183 170.178L297.75 171.61Z" fill="white" stroke="#263238" stroke-linecap="round" stroke-linejoin="round"/>
<path d="M293.543 126.588C293.543 126.588 290.708 142.827 290.2 152.622C289.693 162.416 294.214 174.474 302.927 174.474C311.64 174.474 323.338 159.051 323.338 159.051C323.338 159.051 334.05 146.994 335.9 137.571C337.75 128.149 323.517 118.612 314.475 116.85C305.434 115.089 298.242 115.991 293.543 126.588Z" fill="white" stroke="#263238" stroke-linecap="round" stroke-linejoin="round"/>
<path d="M327.113 138.23C327.389 139.074 327.418 139.974 327.197 140.833C326.976 141.692 326.513 142.475 325.859 143.099C324.293 144.688 321.995 147.395 322.681 149.414C323.01 150.373 330.738 150.459 335.229 146.55C341.093 141.409 338.586 124.683 327.53 118.583C316.475 112.483 305.658 115.261 304.658 119.442C303.658 123.624 325.859 135.939 326.859 137.714C326.957 137.88 327.042 138.052 327.113 138.23Z" fill="#263238" stroke="#263238" stroke-linecap="round" stroke-linejoin="round"/>
<path d="M329.53 126.631L336.706 145.662L334.02 147.466L325.441 144.373L329.53 126.631Z" fill="white" stroke="#263238" stroke-linecap="round" stroke-linejoin="round"/>
<path d="M331.424 133.433L329.53 126.688C329.368 127.9 328.778 129.022 327.859 129.867C325.024 132.273 318.489 131.958 309.447 128.736C300.406 125.514 297.392 130.511 289.693 130.34C284.874 130.239 282.487 128.263 281.368 126.788H280.323L282.502 137.07H282.636C282.856 137.898 283.258 138.67 283.817 139.335C284.376 140 285.077 140.541 285.874 140.922C291.23 143.657 294.915 141.724 299.779 140.922C304.643 140.12 310.313 142.683 310.313 142.683C317.355 146.221 321.846 146.02 326.889 143.485C329.753 142.01 333.364 137.772 331.424 133.433Z" fill="white" stroke="#263238" stroke-linecap="round" stroke-linejoin="round"/>
<path d="M308 133.347C308 133.347 302.315 130.769 297.452 131.571C292.588 132.373 288.917 134.306 283.561 131.571C278.205 128.836 278.041 120.817 291.603 116.95C305.165 113.084 318.907 115.619 325.248 119.814C333.454 125.285 328.425 132.187 324.576 134.134C319.473 136.712 314.968 136.87 308 133.347Z" fill="#6A008B" stroke="#263238" stroke-linecap="round" stroke-linejoin="round"/>
<path d="M301.749 141.008L298.899 142.941C297.228 144.058 297.571 144.373 298.571 145.505C299.599 146.405 300.793 147.113 302.092 147.595" stroke="#263238" stroke-linecap="round" stroke-linejoin="round"/>
<path d="M296.556 151.175C296.556 151.175 298.571 153.108 305.27 153.108C311.969 153.108 313.64 150.688 313.64 150.688" stroke="#263238" stroke-linecap="round" stroke-linejoin="round"/>
<path d="M298.735 152.307C298.735 152.307 299.913 156.961 301.913 157.118C303.912 157.276 307.269 153.108 307.269 153.108C307.269 153.108 302.256 154.068 298.735 152.307Z" stroke="#263238" stroke-linecap="round" stroke-linejoin="round"/>
<path d="M333.051 219.768C333.051 219.768 330.693 215.644 333.827 204.016" stroke="#263238" stroke-linecap="round" stroke-linejoin="round"/>
<path d="M337.586 202.827C337.586 202.827 333.364 216.431 333.618 223.591C333.871 230.751 332.872 246.017 332.872 246.017C331.592 249.231 331.503 252.77 332.618 256.041C334.602 260.823 349.03 267.74 354.744 259.621C360.459 251.501 360.22 212.135 358.236 203.3C356.251 194.465 352.014 190.169 347.538 189.453" fill="#FE4C39"/>
<path d="M337.586 202.827C337.586 202.827 333.364 216.431 333.618 223.591C333.871 230.751 332.872 246.017 332.872 246.017C331.592 249.231 331.503 252.77 332.618 256.041C334.602 260.823 349.03 267.74 354.744 259.621C360.459 251.501 360.22 212.135 358.236 203.3C356.251 194.465 352.014 190.169 347.538 189.453" stroke="#263238" stroke-linecap="round" stroke-linejoin="round"/>
<path d="M349.478 234.475C335.005 236.351 334.558 241.978 334.558 241.978C334.558 241.978 331.812 235.219 342.018 224.708" stroke="#263238" stroke-linecap="round" stroke-linejoin="round"/>
<path d="M329.888 244.585C335.096 242.256 340.794 241.115 346.538 241.248C355.252 241.721 360.966 252.231 360.966 257C360.818 259.303 359.847 261.487 358.216 263.183C356.585 264.879 354.394 265.983 352.014 266.308C347.538 266.781 339.078 268.456 333.11 260.823C327.142 253.191 327.65 252.461 329.888 244.585Z" fill="white" stroke="#263238" stroke-linecap="round" stroke-linejoin="round"/>
<path d="M244.098 214.999C244.098 214.999 246.082 208.069 248.32 206.88C250.558 205.691 257.764 204.732 257.018 206.637C256.272 208.541 252.796 208.312 252.05 208.555C251.304 208.799 250.066 213.081 249.812 213.797C249.558 214.513 246.336 216.904 244.098 214.999Z" stroke="#263238" stroke-linecap="round" stroke-linejoin="round"/>
<path d="M276.176 205.448C276.176 205.448 258.51 205.691 255.288 206.407C252.065 207.123 253.542 212.365 254.288 215.472C255.034 218.579 256.78 220.727 258.018 220.727C259.256 220.727 258.018 217.377 260.002 217.377C261.987 217.377 272.938 216.904 274.684 218.093C276.429 219.281 277.16 221.673 278.414 221.2C279.667 220.727 281.89 215.229 281.398 210.46C281.298 209.163 280.715 207.943 279.757 207.023C278.798 206.103 277.527 205.544 276.176 205.448Z" fill="#6A008B" stroke="#263238" stroke-linecap="round" stroke-linejoin="round"/>
<path d="M243.352 213.797C243.352 213.797 251.796 211.649 254.288 211.892C255.288 211.885 256.258 212.216 257.029 212.826C257.801 213.435 258.325 214.286 258.51 215.229C259.256 217.377 256.034 216.661 256.034 216.661L253.05 215.945L250.304 216.661L254.78 218.551C255.682 218.925 256.431 219.573 256.911 220.396C257.391 221.219 257.576 222.171 257.436 223.105C257.401 223.479 257.254 223.837 257.014 224.134C256.773 224.431 256.448 224.655 256.078 224.78C253.619 225.379 251.129 225.857 248.618 226.212C248.618 226.212 250.11 230.035 248.111 231.697C247.264 232.526 246.248 233.179 245.127 233.615C245.127 233.615 246.127 253.177 245.381 260.58C244.635 267.983 242.397 274.9 237.921 276.332C233.445 277.764 229.715 274.9 230.953 266.065C232.191 257.229 240.412 230.751 240.651 227.171C240.89 223.591 243.098 215.715 243.352 213.797Z" fill="white" stroke="#263238" stroke-linecap="round" stroke-linejoin="round"/>
<path d="M245.082 220.727C245.082 220.727 252.796 218.093 256.526 220.727" stroke="#263238" stroke-linecap="round" stroke-linejoin="round"/>
<path d="M245.336 224.064C245.336 224.064 253.527 221.658 257.391 223.105" stroke="#263238" stroke-linecap="round" stroke-linejoin="round"/>
<path d="M250.304 216.661C248.681 216.27 247.007 216.111 245.336 216.188" stroke="#263238" stroke-linecap="round" stroke-linejoin="round"/>
<path d="M357.728 256.284C357.728 256.284 355.49 251.272 345.554 246.26C336.93 241.964 316.952 233.845 309.238 227.644C302.652 222.088 296.732 215.844 291.588 209.028C289.604 206.164 285.128 204.975 282.89 204.259C280.652 203.543 273.43 204.732 272.192 206.407C270.954 208.083 272.938 209.271 275.176 208.069C277.414 206.866 279.906 207.839 281.144 208.312C282.786 209.415 284.288 210.698 285.62 212.135C285.62 212.135 277.996 210.589 273.938 213.081C272.446 214.026 273.684 217.377 275.43 219.768C277.175 222.159 280.652 228.36 282.382 228.603C284.186 228.521 285.958 228.113 287.604 227.401C289.736 228.769 291.982 229.966 294.318 230.981C297.118 231.446 299.942 231.767 302.778 231.94C309.083 238.922 315.899 245.464 323.174 251.515C330.872 257.544 336.273 262.012 343.316 265.119C349.284 267.74 361.458 266.065 357.728 256.284Z" fill="white" stroke="#263238" stroke-linecap="round" stroke-linejoin="round"/>
<path d="M283.68 226.384H287.873" stroke="#263238" stroke-linecap="round" stroke-linejoin="round"/>
<path d="M275.43 219.768C275.43 219.768 276.176 214.999 278.652 214.999C281.129 214.999 287.366 215.229 287.366 215.229" stroke="#263238" stroke-linecap="round" stroke-linejoin="round"/>
<path d="M278.294 223.219C278.294 223.219 279.398 220.484 280.652 220.484H289.842" stroke="#263238" stroke-linecap="round" stroke-linejoin="round"/>
<path d="M259.495 475.867C259.495 475.867 257.69 486.478 258.719 488.211C259.749 489.944 266.448 491.175 270.566 491.175C274.684 491.175 276.534 491.418 277.772 489.199C279.01 486.979 280.085 481.294 280.592 479.075C281.099 476.855 278.279 477.643 273.654 477.643C269.029 477.643 261.554 474.435 261.554 474.435C261.554 474.435 260.525 473.891 259.495 475.867Z" fill="white" stroke="#263238" stroke-linecap="round" stroke-linejoin="round"/>
<path d="M318.936 483.772C318.936 483.772 318.175 491.175 319.205 493.652C320.234 496.13 325.889 497.347 329.5 497.103C333.11 496.86 336.184 496.115 337.213 494.139C338.243 492.163 338.705 485.991 338.705 484.502C338.705 483.013 334.065 484.258 329.171 484.258C324.278 484.258 320.488 481.538 318.936 483.772Z" fill="white" stroke="#263238" stroke-linecap="round" stroke-linejoin="round"/>
<path d="M290.932 306.762L291.767 325.178L296.497 326.781L297.332 317.975" stroke="white" stroke-linecap="round" stroke-linejoin="round"/>
<path d="M294.08 338.624L284.814 335.058" stroke="white" stroke-linecap="round" stroke-linejoin="round"/>
<path d="M326.352 150.373C326.352 150.373 334.722 143.299 336.065 148.769C337.407 154.24 329.365 157.762 326.695 158.077C324.024 158.393 324.681 155.672 324.681 155.672" fill="white"/>
<path d="M326.352 150.373C326.352 150.373 334.722 143.299 336.065 148.769C337.407 154.24 329.365 157.762 326.695 158.077C324.024 158.393 324.681 155.672 324.681 155.672" stroke="#263238" stroke-linecap="round" stroke-linejoin="round"/>
</svg>
